<svg width="612" height="748" viewBox="0 0 612 748" fill="none" xmlns="http://www.w3.org/2000/svg">
<path d="M376.924 35.969L178.486 389.069L246.019 389.261L380.117 156.083L612.001 568.52V480.38C612.001 473.596 610.31 466.919 607.079 460.954L376.924 35.969Z" fill="#FC5850"/>
<path d="M414.796 471.826L385.08 422.481L220.95 422.48L123.161 422.481L357.477 0.0300038L305.902 3.10499e-06C298.636 -0.0039969 291.917 3.857 288.262 10.137L19.7881 471.45L414.796 471.826Z" fill="#FC5850"/>
<path d="M0 548.125C0 559.39 9.131 568.521 20.396 568.521H571.548L379.666 226.334L345.675 285.208L422.284 417.808L475.986 506.132H0V548.125Z" fill="#FC5850"/>
<path d="M24.365 718V629.296H83.757V646.064H44.333V664.624H79.405V681.392H44.333V718H24.365ZM129.865 718V629.296H189.769V646.064H149.833V663.472H185.289V679.856H149.833V701.232H192.713V718H129.865ZM298.754 700.848V718H239.49V629.296H259.458V700.848H298.754ZM343.615 629.296H363.583V718H343.615V629.296ZM442.739 628.272C455.966 628.272 466.12 630.619 473.203 635.312C480.286 639.92 483.827 647.515 483.827 658.096C483.827 668.763 480.243 676.485 473.075 681.264C465.907 685.957 455.667 688.304 442.355 688.304H436.083V718H416.115V630.576C420.467 629.723 425.075 629.125 429.939 628.784C434.803 628.443 439.07 628.272 442.739 628.272ZM444.019 645.296C442.568 645.296 441.118 645.339 439.667 645.424C438.302 645.509 437.107 645.595 436.083 645.68V671.28H442.355C449.267 671.28 454.472 670.341 457.971 668.464C461.47 666.587 463.219 663.088 463.219 657.968C463.219 655.493 462.75 653.445 461.811 651.824C460.958 650.203 459.678 648.923 457.971 647.984C456.35 646.96 454.344 646.277 451.955 645.936C449.566 645.509 446.92 645.296 444.019 645.296ZM530.49 718V629.296H590.394V646.064H550.458V663.472H585.914V679.856H550.458V701.232H593.338V718H530.49Z" fill="white"/>
</svg>
